<svg fill="none" height="150" viewBox="0 0 150 150" width="150" xmlns="http://www.w3.org/2000/svg" xmlns:xlink="http://www.w3.org/1999/xlink"><clipPath id="a"><path d="m0 0h150v150h-150z"/></clipPath><mask id="b" fill="#fff"><path d="m86.3913 18.6663 9.0184-15.83219 5.7753 18.14449 15.978-6.6375-4.906 18.011 16.826 5.0978-13.721 11.0005 11.251 14.8837-17.298-.2082 1.385 18.9806-14.2598-11.3422-9.0184 15.8322-5.7735-18.1342-15.9802 6.6271 4.9081-18.0005-16.8275-5.1082 13.7224-10.9901-11.253-14.8941 17.3007.2186-1.3874-18.99099z" fill="#fff"/></mask><mask id="c" height="41" maskUnits="userSpaceOnUse" width="38" x="55" y="42"><ellipse cx="22.3094" cy="14.937" fill="#fff96a" rx="22.3094" ry="14.937" stroke="#000" stroke-width=".472656" transform="matrix(-.5 -.866026 -.961117 .27614 99.6187 77.8665)"/></mask><mask id="d" height="40" maskUnits="userSpaceOnUse" width="37" x="61" y="41"><ellipse cx="21.4302" cy="15.2072" fill="#aeff6e" rx="21.4302" ry="15.2072" stroke="#000" stroke-width=".472656" transform="matrix(-.802005 -.597317 -.296675 .954978 101.025 59.0996)"/></mask><mask id="e" fill="#fff"><path clip-rule="evenodd" d="m73.7222 45.1511c-10.0126 8.7963-22.9037 10.4926-28.7932 3.7889-.0209-.0239-.0418-.0478-.0625-.0719-.0135-.0148-.0269-.0298-.0401-.0449l-4.0485-4.6083c-2.571-2.9265-.1563-9.4925 5.483-16.3176 1.6166-2.4732 3.6739-4.8617 6.1337-7.0227 2.4599-2.1611 5.0935-3.8936 7.7543-5.1783 7.4945-4.7131 14.3167-6.26201 16.8876-3.3356l4.0485 4.6083c.0118.0134.0235.0269.0351.0405.0226.0253.0452.0507.0676.0763 5.8895 6.7038 2.547 19.269-7.4655 28.0653z" fill="#fff" fill-rule="evenodd"/></mask><mask id="f" fill="#000" height="27.3847" maskUnits="userSpaceOnUse" width="35.0836" x="41.2345" y="13.823"><path d="m41.2345 13.823h35.0836v27.3847h-35.0836z" fill="#fff"/><path d="m51.9383 34.1969c-1.6569-.6369-2.952-1.3587-3.8854-2.1653-.9277-.8044-1.4297-1.6568-1.5059-2.5572-.0763-.9004.3224-1.8014 1.1961-2.7031l7.0768 2.7204c-.4636.4731-.6707.9064-.6213 1.2999.0551.3957.3579.6993.9083.9109.3819.1468.7771.197 1.1857.1505.4141-.0443.7773-.2182 1.0897-.5214.2042-.1983.3136-.3883.3282-.5699.0202-.1795-.0454-.3594-.1969-.5398-.1398-.184-.3644-.3884-.6738-.6132l-2.3457-1.7076c-.8232-.6014-1.481-1.1922-1.9734-1.7722-.4868-.5779-.7271-1.2239-.7208-1.9379.0062-.7141.4117-1.4619 1.2166-2.2434 1.0331-1.0032 2.2593-1.6838 3.6786-2.0418 1.4253-.364 2.9062-.4582 4.4425-.2828 1.542.1775 3.0572.5524 4.5456 1.1245 1.4041.5398 2.574 1.189 3.5097 1.9476.9474.7549 1.5161 1.5882 1.7062 2.4999.1958.9138-.1185 1.8432-.9428 2.7882l-6.7988-2.6135c.4476-.4956.6335-.9044.5576-1.2267-.0758-.3222-.3384-.5697-.7877-.7424-.3988-.1533-.8172-.1961-1.2554-.1285-.4382.0677-.8074.2473-1.1077.539l-.0541.0524c-.1569.1677-.2359.3205-.2369.4585.0046.1402.0557.2657.1533.3764.0976.1108.2401.2389.4275.3842l3.3536 2.5104c.0221.0166.0414.0321.0578.0466.7342.5509 1.2821 1.1075 1.6437 1.6699.3677.5565.4896 1.1651.3658 1.8258-.1177.6549-.561 1.3556-1.3299 2.1021-1.015.9857-2.2262 1.6518-3.6335 1.9982s-2.9101.42-4.5082.2209c-1.5865-.2028-3.2082-.6227-4.8651-1.2596zm-1.8074-1.3054 4.4652 1.7165-1.9821 1.9246-4.4652-1.7164zm14.7275-14.4149 4.4652 1.7164-1.892 1.8372-4.4652-1.7164z" fill="#000"/></mask><g clip-path="url(#a)"><path d="m53.6677 148.701 54.9053-19.731-30.4364-24.227-31.264 31.643z" fill="#2f2e0c"/><path d="m108.573 128.97.089.246.441-.158-.367-.292zm-54.9053 19.731-.2288.126c.062.113.1964.163.3171.12zm-6.7951-12.315-.1859-.184-.1372.139.0943.171zm31.264-31.643.1627-.204-.1836-.147-.165.167zm30.3484 23.982-54.9057 19.73.1767.492 54.906-19.731zm-54.5886 19.85-6.7951-12.315-.4575.252 6.7951 12.315zm-6.838-12.005 31.264-31.643-.3717-.368-31.264 31.643zm30.9155-31.623 30.4371 24.228.325-.409-30.4367-24.227z" fill="#2f2e0c"/><path d="m86.3913 18.6663 9.0184-15.83219 5.7753 18.14449 15.978-6.6375-4.906 18.011 16.826 5.0978-13.721 11.0005 11.251 14.8837-17.298-.2082 1.385 18.9806-14.2598-11.3422-9.0184 15.8322-5.7735-18.1342-15.9802 6.6271 4.9081-18.0005-16.8275-5.1082 13.7224-10.9901-11.253-14.8941 17.3007.2186-1.3874-18.99099z" fill="#fff" mask="url(#b)" stroke="#2f2e0c" stroke-width=".945312"/><path clip-rule="evenodd" d="m97.1595 130.285c-12.2495-1.327-23.7112-8.912-25.6004-16.942-.0081-.035-.0159-.069-.0236-.103-.0031-.012-.006-.025-.0089-.037l-1.2987-5.52c-.8247-3.505 4.1178-5.898 11.853-6.293 2.4495-.429 5.2271-.511 8.2371-.185 3.0098.326 5.9719 1.03 8.7562 2.025 8.3318 2.135 14.6888 5.752 15.5128 9.257l1.299 5.52c.005.022.01.043.014.064.006.025.013.051.018.076 1.89 8.03-6.509 13.464-18.7585 12.138z" fill="#aeff6e" fill-rule="evenodd"/><path d="m71.5355 113.24.2344.023.0011.005zm10.5454-11.85.1151.228-.0119.002-.0125.001zm16.9933 1.84.0162.223-.0135-.003-.0134-.005zm15.5128 9.257-.235-.025zm1.299 5.52.235.026zm.014.064-.234-.024-.002-.006zm-44.1059-4.703c.921 3.915 4.1817 7.749 8.7659 10.783 4.5823 3.032 10.4608 5.245 16.5454 5.904l.1083.46c-6.1649-.668-12.142-2.911-16.8252-6.01-4.6814-3.098-8.0961-7.072-9.0643-11.188zm-.0231-.1c.0075.033.0152.067.0231.1l-.4699-.051c-.0083-.035-.0164-.07-.0242-.105zm-.4699-.051c-.0032-.013-.0064-.026-.0095-.039l.4699.05c.0027.012.0055.023.0083.035zm-.0095-.039-1.2987-5.521.4699.051 1.2987 5.52zm-1.2987-5.521c-.4428-1.882.6722-3.405 2.7882-4.499 2.1277-1.101 5.3252-1.801 9.2091-1.999l.1814.462c-3.8514.197-6.9927.89-9.0639 1.962-2.0827 1.077-3.0267 2.502-2.6449 4.125zm20.3793-6.222c-2.9894-.324-5.7464-.242-8.1762.183l-.2302-.457c2.4692-.432 5.2673-.514 8.2981-.186zm8.6913 2.01c-2.762-.988-5.7023-1.686-8.6913-2.01l-.1083-.46c3.0305.328 6.0144 1.037 8.8211 2.04zm-.0054-.438c4.1829 1.072 7.8859 2.519 10.6569 4.15 2.755 1.622 4.664 3.473 5.107 5.356l-.47-.051c-.382-1.624-2.063-3.334-4.776-4.93-2.697-1.588-6.337-3.016-10.4856-4.079zm15.7639 9.506 1.299 5.52-.47-.051-1.299-5.52zm1.299 5.52c.005.022.01.045.015.068l-.472-.06c-.004-.02-.008-.039-.013-.059zm-.437.088c-.006-.024-.012-.049-.018-.074l.469.048c.006.026.012.051.018.077zm-18.5786 11.934c6.0846.659 11.2026-.363 14.5596-2.536 3.359-2.173 4.94-5.483 4.019-9.398l.469.051c.969 4.116-.706 7.538-4.136 9.758-3.432 2.22-8.638 3.252-14.8033 2.585z" fill="#2f2e0c"/><g fill="#aeff6e"><ellipse cx="22.3094" cy="14.937" rx="22.3094" ry="14.937" stroke="#2f2e0c" stroke-width=".472656" transform="matrix(-.994187 -.107671 .229013 .973423 111.167 97.9468)"/><ellipse cx="19.2892" cy="12.9148" rx="19.2892" ry="12.9148" stroke="#2f2e0c" stroke-width=".472656" transform="matrix(-.994187 -.107671 .229013 .973423 108.626 99.5896)"/><path d="m86.0104 106.481c.9612.989 2.0125 1.765 3.1432 2.52l4.1267-1.071 1.4047 1.446-3.5447.921c1.2065.799 2.3582 1.643 3.3933 2.709.4189.432.7868.845 1.1018 1.271 1.926.517 3.8257 1.041 5.3336.649 1.561-.405 1.032-1.666-.718-3.467l1.873-.391c2.962 2.948 3.236 5.038.829 5.663-1.931.501-4.1919-.088-6.2676-.724.4759 1.274.1836 2.303-1.3507 2.701-1.5607.406-3.693-.153-5.2702-1.777-1.4294-1.472-1.2741-2.847.4453-3.293.6613-.172 1.4158-.145 2.2178-.036-1.1601-1.16-2.3912-1.985-3.677-2.763l-2.6982.701-1.4048-1.447 2.0104-.522c-1.1078-.697-2.1856-1.466-3.2207-2.532-2.8095-2.893-2.8007-5.374.453-6.218 3.4124-.8862 7.3715.564 10.6 3.889l-1.9118.623c-2.3677-2.404-4.7921-3.331-6.9084-2.782-2.1426.556-1.6848 2.153.0403 3.93zm8.02 10.85c.9523-.247.8652-1.019.091-2.089-.8987-.243-1.7253-.378-2.2808-.234-.82.213-.9037.775-.189 1.511.6901.71 1.6645.998 2.3788.812z" stroke="#2f2e0c" stroke-width=".472656"/><path clip-rule="evenodd" d="m96.1403 124.503c-12.2494-1.326-23.7111-8.911-25.6004-16.942-.0045-.019-.0089-.038-.0133-.057-.0071-.027-.0139-.055-.0204-.082l-1.2987-5.521c-.8247-3.505 4.1185-5.8979 11.8547-6.2927 2.4494-.4287 5.2268-.5109 8.2366-.1849 3.0108.326 5.9741 1.0302 8.7592 2.0262 8.329 2.135 14.684 5.7514 15.509 9.2564l1.299 5.52c0 .002.001.005.001.008.011.044.022.088.032.131 1.889 8.031-6.509 13.465-18.7587 12.138z" fill-rule="evenodd"/></g><path d="m70.5266 107.504.2337.02.0016.007zm10.5356-11.8957.1151.2284-.0119.0021-.0125.0006zm16.9958 1.8413.0161.223-.0134-.0034-.0135-.0048zm15.509 9.2564.235.025zm1.299 5.52-.235-.026zm.001.008-.234-.023-.001-.003zm-44.0921-4.647c.921 3.914 4.1818 7.748 8.7659 10.782 4.5823 3.033 10.4608 5.245 16.5454 5.904l.1083.46c-6.1649-.667-12.142-2.911-16.8252-6.01-4.6814-3.098-8.0961-7.072-9.0643-11.187zm-.013-.056c.0043.019.0086.037.013.056l-.4699-.051c-.0046-.02-.0091-.039-.0136-.059zm-.4688-.047c-.0077-.029-.0149-.058-.0219-.088l.4699.051c.0061.026.0124.051.0191.077zm-.0219-.088-1.2986-5.52.4699.051 1.2986 5.52zm-1.2986-5.52c-.4429-1.8823.6722-3.4057 2.7886-4.5001 2.128-1.1004 5.326-1.8006 9.2103-1.9988l.1814.4623c-3.8518.1966-6.9936.8903-9.0651 1.9615-2.0831 1.0771-3.0272 2.5031-2.6453 4.1261zm20.3804-6.2226c-2.9892-.3237-5.746-.2419-8.1757.1833l-.2302-.4569c2.4691-.4321 5.267-.5147 8.2976-.1865zm8.6942 2.011c-2.7628-.988-5.7042-1.6871-8.6942-2.011l-.1083-.4601c3.0315.3283 6.0166 1.0375 8.8241 2.0414zm-.0053-.4379c4.1821 1.072 7.8841 2.5194 10.6541 4.1505 2.755 1.621 4.663 3.472 5.106 5.354l-.47-.051c-.382-1.623-2.063-3.333-4.775-4.929-2.696-1.587-6.336-3.0153-10.4829-4.0784zm15.7601 9.5045 1.298 5.52-.469-.051-1.299-5.52zm1.298 5.52c.001.003.002.006.003.009l-.471-.052c0-.003-.001-.005-.001-.008zm-.436.089c-.01-.043-.02-.086-.031-.129l.469.045c.011.045.022.09.032.135zm-18.5778 11.933c6.0848.659 11.2018-.363 14.5598-2.535 3.359-2.174 4.939-5.483 4.018-9.398l.47.051c.968 4.115-.706 7.538-4.136 9.758-3.432 2.22-8.639 3.252-14.8035 2.584z" fill="#2f2e0c"/><ellipse cx="22.3094" cy="14.937" fill="#aeff6e" rx="22.3094" ry="14.937" stroke="#2f2e0c" stroke-width=".472656" transform="matrix(-.994187 -.107671 .229013 .973423 110.149 92.165)"/><ellipse cx="19.2892" cy="12.9148" fill="#aeff6e" rx="19.2892" ry="12.9148" stroke="#2f2e0c" stroke-width=".472656" transform="matrix(-.994187 -.107671 .229013 .973423 107.609 93.8079)"/><path d="m84.9919 100.698c.9611.989 2.0125 1.765 3.1432 2.52l4.1266-1.071 1.4047 1.446-3.5446.921c1.2064.799 2.3582 1.643 3.3932 2.709.419.432.7868.845 1.1018 1.271 1.9261.517 3.8257 1.041 5.3335.649 1.5607-.405 1.0317-1.666-.7179-3.467l1.8726-.391c2.963 2.948 3.237 5.038.83 5.663-1.931.501-4.1924-.088-6.2682-.724.4759 1.274.1836 2.303-1.3506 2.702-1.5608.405-3.693-.154-5.2703-1.778-1.4294-1.472-1.2741-2.847.4454-3.293.6613-.172 1.4157-.145 2.2177-.036-1.1601-1.16-2.3912-1.985-3.677-2.763l-2.6982.701-1.4047-1.447 2.0104-.522c-1.1079-.697-2.1857-1.466-3.2208-2.532-2.8094-2.8929-2.8007-5.3737.453-6.2183 3.4125-.8859 7.3716.5648 10.6 3.8892l-1.9118.6234c-2.3677-2.4039-4.7921-3.3316-6.9083-2.7822-2.1427.5563-1.6848 2.1532.0403 3.9299zm8.0199 10.85c.9523-.247.8653-1.019.0911-2.089-.8987-.243-1.7253-.378-2.2808-.234-.8201.213-.9037.775-.189 1.511.69.71 1.6645.998 2.3787.812z" fill="#aeff6e" stroke="#2f2e0c" stroke-width=".472656"/><path clip-rule="evenodd" d="m94.8449 118.663c-12.2495-1.327-23.7112-8.912-25.6004-16.942-.0045-.019-.0089-.038-.0133-.057-.0071-.028-.0139-.055-.0204-.083l-1.2987-5.5201c-.8247-3.5055 4.1185-5.8984 11.8547-6.2932 2.4494-.4286 5.2268-.5109 8.2366-.1849 3.0108.3261 5.974 1.0302 8.7592 2.0262 8.3294 2.1351 14.6844 5.7512 15.5084 9.256l1.299 5.52c.001.003.001.006.002.008.011.044.022.088.032.132 1.889 8.03-6.51 13.464-18.7591 12.138z" fill="#aeff6e" fill-rule="evenodd"/><path d="m69.2312 101.664.2337.019.0016.007zm10.5356-11.8963.115.2285-.0118.002-.0125.0007zm16.9958 1.8413.0161.2231-.0134-.0035-.0135-.0048zm16.8094 14.784-.234-.022-.001-.004zm-44.0925-4.647c.921 3.915 4.1817 7.749 8.7659 10.783 4.5823 3.032 10.4608 5.245 16.5454 5.904l.1083.46c-6.1649-.668-12.142-2.911-16.8252-6.01-4.6814-3.099-8.0961-7.072-9.0643-11.188zm-.013-.056c.0043.019.0086.038.013.056l-.4699-.051c-.0046-.019-.0092-.039-.0136-.058zm-.4688-.046c-.0077-.03-.0149-.059-.0219-.088l.4699.05c.0061.026.0124.052.0191.077zm-.0219-.088-1.2987-5.5205.47.0508 1.2986 5.5197zm-1.2987-5.5205c-.4428-1.8823.6723-3.4058 2.7887-4.5002 2.128-1.1004 5.3259-1.8005 9.2102-1.9988l.1815.4624c-3.8519.1965-6.9936.8902-9.0651 1.9614-2.0831 1.0772-3.0272 2.5029-2.6453 4.126zm20.3805-6.2227c-2.9892-.3237-5.746-.2418-8.1758.1834l-.2301-.457c2.4691-.432 5.267-.5147 8.2976-.1864zm8.6942 2.011c-2.7628-.9879-5.7042-1.6871-8.6942-2.011l-.1083-.46c3.0315.3283 6.0166 1.0374 8.8241 2.0414zm-.0053-.4379c4.1825 1.072 7.8845 2.5195 10.6545 4.1501 2.754 1.6218 4.663 3.4725 5.105 5.354l-.47-.05c-.381-1.6233-2.063-3.3331-4.774-4.9294-2.696-1.5873-6.336-3.0155-10.4833-4.0785zm15.7595 9.5041 1.299 5.521-.47-.051-1.299-5.52zm1.299 5.521c.001.002.001.005.002.008l-.47-.052c-.001-.002-.001-.005-.002-.007zm-.436.088c-.01-.042-.021-.085-.031-.128l.468.045c.011.045.022.089.033.134zm-18.5782 11.934c6.0842.659 11.2022-.363 14.5602-2.536 3.359-2.173 4.939-5.483 4.018-9.398l.47.051c.968 4.116-.707 7.538-4.137 9.758-3.432 2.22-8.638 3.252-14.8029 2.585z" fill="#2f2e0c"/><ellipse cx="22.3094" cy="14.937" fill="#aeff6e" rx="22.3094" ry="14.937" stroke="#2f2e0c" stroke-width=".472656" transform="matrix(-.994187 -.107671 .229013 .973423 108.852 86.3247)"/><ellipse cx="19.2892" cy="12.9148" fill="#aeff6e" rx="19.2892" ry="12.9148" stroke="#2f2e0c" stroke-width=".472656" transform="matrix(-.994187 -.107671 .229013 .973423 106.312 87.9673)"/><path d="m83.6945 94.8565c.9612.9897 2.0125 1.7653 3.1432 2.5204l4.1266-1.0713 1.4048 1.4465-3.5447.9202c1.2065.799 2.3582 1.6437 3.3933 2.7097.4189.431.7868.844 1.1017 1.271 1.9261.517 3.8258 1.04 5.3336.649 1.561-.405 1.0318-1.666-.7179-3.4678l1.8727-.3908c2.9632 2.9486 3.2362 5.0386.8292 5.6626-1.9308.502-4.1918-.087-6.2676-.724.476 1.275.1837 2.304-1.3506 2.702-1.5607.405-3.693-.153-5.2703-1.777-1.4293-1.472-1.274-2.847.4454-3.293.6613-.172 1.4158-.146 2.2177-.036-1.1601-1.161-2.3912-1.9848-3.677-2.7632l-2.6981.7005-1.4048-1.4465 2.0104-.5219c-1.1078-.6975-2.1856-1.4663-3.2207-2.5321-2.8095-2.893-2.8007-5.3738.453-6.2184 3.4124-.8859 7.3715.5648 10.6 3.8892l-1.9119.6234c-2.3677-2.404-4.7921-3.3316-6.9083-2.7822-2.1427.5562-1.6848 2.1532.0403 3.9297zm8.0199 10.8505c.9523-.247.8653-1.019.0911-2.089-.8987-.243-1.7253-.378-2.2808-.234-.82.213-.9037.775-.189 1.511.6901.71 1.6645.997 2.3787.812z" fill="#aeff6e" stroke="#2f2e0c" stroke-width=".472656"/><path clip-rule="evenodd" d="m93.5476 112.819c-12.2495-1.327-23.7112-8.912-25.6005-16.9425-.0045-.0195-.0091-.0389-.0135-.0584-.0071-.0272-.0138-.0543-.0202-.0815l-1.2987-5.5201c-.8247-3.5056 4.1191-5.8986 11.8559-6.2933 2.4491-.4284 5.2261-.5106 8.2355-.1846 3.0102.326 5.9729 1.03 8.7577 2.0256 8.3302 2.1351 14.6852 5.7514 15.5102 9.2564l1.299 5.5204c.001.003.001.007.002.01.011.043.021.086.031.13 1.89 8.03-6.509 13.464-18.7584 12.138z" fill="#aeff6e" fill-rule="evenodd"/><path d="m67.9336 95.8181.2337.0198.0016.007zm10.537-11.8949.1151.2285-.0119.0021-.0124.0006zm16.9932 1.841.0161.2231-.0134-.0034-.0135-.0049zm15.5102 9.2564-.235-.0254zm1.299 5.5204.235.025zm.002.01-.234-.022-.001-.004zm-44.0929-4.6491c.921 3.9147 4.1818 7.7491 8.7659 10.7821 4.5823 3.033 10.4608 5.246 16.5454 5.904l.1083.461c-6.1649-.668-12.142-2.911-16.8252-6.011-4.6814-3.098-8.0961-7.0715-9.0643-11.187zm-.0132-.057c.0043.019.0087.038.0132.057l-.4699-.0509c-.0047-.0199-.0093-.0398-.0139-.0597zm-.4689-.0466c-.0075-.0291-.0147-.0581-.0215-.0872l.4699.0509c.0059.0253.0122.0506.0187.0759zm-.0215-.0872-1.2987-5.52.4699.0509 1.2987 5.52zm-1.2987-5.52c-.4429-1.8824.6724-3.406 2.789-4.5004 2.1282-1.1003 5.3264-1.8005 9.2111-1.9986l.1815.4623c-3.8523.1965-6.9943.8902-9.066 1.9613-2.0834 1.0772-3.0276 2.503-2.6457 4.1263zm20.3804-6.2225c-2.9887-.3237-5.7451-.2419-8.1745.1831l-.2301-.4569c2.4687-.4319 5.2663-.5144 8.2963-.1863zm8.6928 2.0104c-2.7624-.9876-5.7033-1.6866-8.6928-2.0104l-.1083-.4601c3.031.3283 6.0156 1.0372 8.8227 2.0409zm-.0053-.4379c4.1824 1.072 7.8853 2.5195 10.6553 4.1503 2.755 1.6218 4.663 3.4726 5.106 5.3547l-.47-.0509c-.382-1.623-2.063-3.3329-4.775-4.9292-2.696-1.5875-6.3366-3.0157-10.4841-4.0787zm15.7613 9.505 1.299 5.5199-.47-.051-1.299-5.5198zm1.299 5.5199c.001.004.001.008.002.011l-.47-.052c-.001-.003-.001-.006-.002-.01zm-.436.089c-.01-.042-.021-.084-.031-.126l.468.045c.011.044.022.088.032.132zm-18.5786 11.933c6.0847.659 11.2026-.362 14.5596-2.535 3.359-2.173 4.94-5.483 4.019-9.398l.469.051c.969 4.116-.706 7.538-4.136 9.758-3.432 2.22-8.6384 3.252-14.8033 2.585z" fill="#2f2e0c"/><ellipse cx="22.3094" cy="14.937" fill="#aeff6e" rx="22.3094" ry="14.937" stroke="#2f2e0c" stroke-width=".472656" transform="matrix(-.994187 -.107671 .229013 .973423 107.554 80.4807)"/><ellipse cx="19.2892" cy="12.9148" fill="#aeff6e" rx="19.2892" ry="12.9148" stroke="#2f2e0c" stroke-width=".472656" transform="matrix(-.994187 -.107671 .229013 .973423 105.014 82.1233)"/><path d="m82.3972 89.0144c.9611.9897 2.0124 1.7654 3.1431 2.5204l4.1267-1.0712 1.4047 1.4465-3.5447.9202c1.2065.7989 2.3582 1.6438 3.3933 2.7097.419.4314.7868.8443 1.1018 1.2709 1.9261.5168 3.8257 1.0405 5.3335.6491 1.5607-.4052 1.0319-1.666-.7179-3.4678l1.8727-.3908c2.9626 2.9485 3.2366 5.0381.8294 5.663-1.931.5013-4.192-.0874-6.2677-.7242.4759 1.2745.1836 2.3038-1.3507 2.7018-1.5607.405-3.693-.153-5.2702-1.7774-1.4294-1.4719-1.2741-2.8468.4453-3.2931.6613-.1717 1.4158-.1451 2.2178-.0356-1.1601-1.1605-2.3912-1.9848-3.677-2.7631l-2.6982.7004-1.4048-1.4465 2.0105-.5219c-1.1079-.6974-2.1857-1.4662-3.2208-2.5321-2.8095-2.893-2.8007-5.3737.453-6.2184 3.4124-.8858 7.3716.5648 10.6 3.8893l-1.9118.6234c-2.3677-2.404-4.7921-3.3316-6.9084-2.7822-2.1426.5562-1.6848 2.1532.0404 3.9296zm8.0199 10.8505c.9523-.2472.8652-1.019.0911-2.089-.8988-.2433-1.7254-.3783-2.2809-.234-.82.2128-.9036.7747-.189 1.5107.6901.7105 1.6646.9974 2.3788.8123z" fill="#aeff6e" stroke="#2f2e0c" stroke-width=".472656"/><path clip-rule="evenodd" d="m92.2517 106.978c-12.2495-1.327-23.7112-8.9119-25.6004-16.9421-.0044-.0186-.0088-.0372-.013-.0558-.0073-.0279-.0142-.0559-.0208-.0838l-1.2987-5.5201c-.8246-3.5053 4.118-5.8981 11.8535-6.2931 2.4497-.4288 5.2275-.5111 8.2379-.1851 3.0113.3261 5.975 1.0305 8.7606 2.0267 8.3282 2.1351 14.6832 5.751 15.5072 9.2557l1.299 5.52c0 .002.001.0039.001.0058.011.0446.022.0892.033.1338 1.889 8.03-6.51 13.465-18.7593 12.138z" fill="#aeff6e" fill-rule="evenodd"/><path d="m66.6383 89.9801.2336.0197.0016.007zm-.0208-.0838-.2349-.0254zm-1.2987-5.5201.235.0255zm11.8535-6.2931.1151.2284-.0118.0021-.0125.0007zm16.9985 1.8416.0161.2231-.0134-.0035-.0135-.0048zm16.8072 14.7815-.234-.0223-.001-.0035zm-44.0918-4.6448c.921 3.9147 4.1818 7.7487 8.7659 10.7826 4.5823 3.032 10.4608 5.245 16.5455 5.904l.1082.46c-6.1649-.668-12.142-2.911-16.8252-6.01-4.6814-3.0983-8.0961-7.072-9.0643-11.1875zm-.0127-.0546c.0042.0182.0084.0364.0127.0546l-.4699-.0509c-.0045-.0191-.0089-.0381-.0133-.0571zm-.4687-.0463c-.0078-.0299-.0152-.0598-.0222-.0896l.4699.0509c.0061.026.0125.052.0193.0779zm-.0222-.0896-1.2987-5.5201.4699.0509 1.2987 5.5201zm-1.2987-5.5201c-.4428-1.8822.6722-3.4056 2.7883-4.5 2.1278-1.1003 5.3254-1.8005 9.2094-1.9989l.1815.4624c-3.8516.1966-6.993.8904-9.0643 1.9615-2.0829 1.0771-3.0269 2.5028-2.645 4.1259zm20.3804-6.2228c-2.9897-.3237-5.7469-.2418-8.1769.1835l-.2301-.4569c2.4693-.4322 5.2677-.5149 8.2987-.1867zm8.6957 2.0115c-2.7632-.9882-5.7051-1.6876-8.6957-2.0115l-.1083-.4601c3.0321.3284 6.0176 1.0378 8.8256 2.042zm-.0053-.4379c4.1817 1.0721 7.8833 2.5195 10.6533 4.1501 2.754 1.6217 4.662 3.4722 5.105 5.3541l-.47-.0509c-.382-1.6228-2.063-3.3325-4.774-4.9287-2.696-1.5872-6.3353-3.0153-10.4821-4.0784zm15.7583 9.5042 1.299 5.5201-.47-.0509-1.299-5.5201zm1.299 5.5201c0 .002.001.0041.001.0062l-.47-.0517c0-.0018-.001-.0036-.001-.0054zm-.436.0887c-.011-.0436-.021-.0872-.032-.1307l.468.0447c.012.0456.023.0912.034.1369zm-18.5784 11.9334c6.0846.659 11.2024-.363 14.5594-2.536 3.36-2.173 4.94-5.4827 4.019-9.3974l.47.0509c.968 4.1155-.707 7.5385-4.137 9.7575-3.432 2.221-8.6383 3.253-14.8032 2.585z" fill="#2f2e0c"/><ellipse cx="22.3094" cy="14.937" fill="#aeff6e" rx="22.3094" ry="14.937" stroke="#2f2e0c" stroke-width=".472656" transform="matrix(-.994187 -.107671 .229013 .973423 106.258 74.6396)"/><ellipse cx="19.2892" cy="12.9148" fill="#aeff6e" rx="19.2892" ry="12.9148" stroke="#2f2e0c" stroke-width=".472656" transform="matrix(-.994187 -.107671 .229013 .973423 103.719 76.2827)"/><path d="m81.1013 83.1734c.9611.9897 2.0124 1.7653 3.1431 2.5204l4.1267-1.0713 1.4047 1.4465-3.5447.9202c1.2065.7989 2.3582 1.6439 3.3933 2.7097.419.4314.7868.8443 1.1018 1.271 1.9261.5168 3.8257 1.0404 5.3335.649 1.5607-.4052 1.0319-1.666-.7179-3.4678l1.8727-.3908c2.9625 2.9486 3.2365 5.0382.8294 5.6631-1.931.5013-4.192-.0875-6.2677-.7243.4759 1.2746.1836 2.3037-1.3507 2.702-1.5607.4052-3.693-.1534-5.2702-1.7776-1.4294-1.4719-1.2741-2.8467.4453-3.2931.6613-.1717 1.4158-.1451 2.2178-.0355-1.1601-1.1605-2.3912-1.9849-3.677-2.7632l-2.6982.7005-1.4047-1.4466 2.0104-.5219c-1.1079-.6974-2.1857-1.4662-3.2208-2.532-2.8095-2.893-2.8007-5.3738.453-6.2184 3.4124-.8859 7.3716.5648 10.6 3.8892l-1.9118.6234c-2.3677-2.404-4.7921-3.3316-6.9084-2.7822-2.1426.5562-1.6848 2.1532.0404 3.9297zm8.0199 10.8505c.9523-.2472.8652-1.019.0911-2.0891-.8988-.2433-1.7254-.3782-2.2809-.234-.82.2129-.9036.7748-.189 1.5107.6901.7106 1.6646.9978 2.3788.8124z" fill="#aeff6e" stroke="#2f2e0c" stroke-width=".472656"/><path clip-rule="evenodd" d="m90.9553 101.488c-12.2495-1.326-23.7112-8.9116-25.6004-16.9418-.0047-.0199-.0093-.0398-.0139-.0596-.0069-.0269-.0136-.0537-.0199-.0805l-1.2987-5.5201c-.8248-3.5058 4.1196-5.8988 11.8571-6.2933 2.4488-.4283 5.2254-.5103 8.2343-.1845 3.0097.326 5.9719 1.0298 8.7563 2.0252 8.3309 2.135 14.6869 5.7515 15.5119 9.2568l1.298 5.52c.001.0043.002.0085.003.0128.011.0424.021.0848.031.1273 1.889 8.0302-6.509 13.4647-18.7587 12.1377z" fill="#aeff6e" fill-rule="evenodd"/><path d="m65.341 84.4866.2337.0199.0016.0069zm10.5385-11.8939.1151.2285-.0119.002-.0125.0007zm16.9906 1.8407.0161.2231-.0135-.0035-.0134-.0048zm15.5119 9.2568.235.0254zm1.298 5.52-.234-.0254zm.003.0128-.234-.0225-.001-.0038zm-44.0932-4.6514c.921 3.9147 4.1818 7.7487 8.7659 10.7824 4.5824 3.0326 10.4608 5.245 16.5455 5.904l.1082.46c-6.1649-.667-12.142-2.9107-16.8252-6.01-4.6814-3.0981-8.0961-7.0718-9.0643-11.1873zm-.0135-.0582c.0044.0194.0089.0388.0135.0582l-.4699-.0509c-.0048-.0203-.0095-.0406-.0142-.0609zm-.4689-.0467c-.0074-.0287-.0145-.0574-.0212-.086l.4699.0509c.0059.0249.012.0499.0185.0749zm-.0212-.086-1.2987-5.5201.4699.0509 1.2987 5.5201zm-1.2987-5.5201c-.4429-1.8825.6725-3.4061 2.7893-4.5005 2.1284-1.1004 5.327-1.8005 9.212-1.9986l.1814.4624c-3.8525.1964-6.9949.89-9.0668 1.9612-2.0836 1.0772-3.0279 2.503-2.646 4.1264zm20.3804-6.2223c-2.9882-.3236-5.7442-.242-8.1733.1829l-.2301-.457c2.4684-.4317 5.2656-.5141 8.2952-.186zm8.6914 2.0099c-2.762-.9874-5.7024-1.6862-8.6914-2.0099l-.1082-.4601c3.0304.3282 6.0144 1.037 8.8211 2.0403zm-.0054-.4379c4.1828 1.072 7.8861 2.5195 10.6561 4.1503 2.755 1.6219 4.664 3.4728 5.107 5.355l-.47-.0509c-.382-1.6231-2.064-3.3331-4.776-4.9295-2.696-1.5875-6.337-3.0157-10.4848-4.0787zm15.7631 9.5053 1.298 5.5201-.469-.0509-1.299-5.5201zm1.298 5.5201c.001.0045.003.0091.004.0136l-.471-.0526c-.001-.004-.002-.0079-.002-.0119zm-.436.0891c-.01-.0414-.02-.0829-.03-.1243l.469.045c.01.0434.021.0868.031.1302zm-18.5778 11.9332c6.0846.659 11.2018-.363 14.5598-2.5353 3.359-2.1734 4.939-5.4831 4.018-9.3979l.47.0509c.968 4.1155-.706 7.5381-4.137 9.7577-3.431 2.2206-8.6377 3.2526-14.8026 2.5846z" fill="#2f2e0c"/><ellipse cx="22.3094" cy="14.937" fill="#aeff6e" rx="22.3094" ry="14.937" stroke="#2f2e0c" stroke-width=".472656" transform="matrix(-.994187 -.107671 .229013 .973423 104.963 68.7981)"/><path clip-rule="evenodd" d="m59.7531 66.7959c-6.1606-10.6704-4.7272-21.1672 3.2015-23.4452.0248-.0071.0496-.0142.0744-.0211.0211-.0065.0423-.0128.0636-.0189l5.4503-1.566c3.4614-.9945 9.2704 3.0755 14.56 9.7157 2.0184 2.0771 3.8492 4.4649 5.3625 7.0861 1.5135 2.6214 2.5687 5.2324 3.1818 7.7136 2.7915 7.357 2.6662 13.1312-.7949 14.1256l-5.4503 1.5659c-.0119.0034-.0239.0068-.0359.0101-.0339.0101-.068.0201-.1021.0299-7.9287 2.278-19.3503-4.5253-25.5109-15.1957z" fill="#aeff6e" fill-rule="evenodd"/><path d="m63.029 43.3296.1226.2034-.0062.0017zm.0636-.0189-.1181-.2047zm5.4503-1.566.1182.2047zm14.56 9.7157-.1873.1176-.0097-.01-.0085-.0107zm8.5443 14.7997-.243.032-.0045-.0119-.003-.012zm-.7949 14.1256-.1182-.2047zm-5.4503 1.5659.1182.2047zm-.0359.0101-.1205-.204.0049-.0013zm-22.2933-38.4064c-3.8653 1.1106-6.1747 4.2323-6.7479 8.4305-.5731 4.1965.5952 9.4445 3.6553 14.7448l-.4542.1305c-3.1005-5.3701-4.2958-10.7057-3.7101-14.9946.5854-4.2873 2.9571-7.553 7.0205-8.7205zm.0726-.0206c-.0242.0068-.0485.0137-.0726.0206l-.2364-.4093c.0254-.0073.0508-.0145.0762-.0216zm-.239-.4085c.0226-.0069.0452-.0136.0681-.0202l.2363.4093c-.0199.0057-.0396.0116-.0592.0177zm.0681-.0202 5.4503-1.5659.2363.4093-5.4503 1.5659zm5.4503-1.5659c1.8586-.534 4.2852.3046 6.8514 2.0415 2.5804 1.7464 5.3763 4.4479 8.0322 7.7818l-.411.1939c-2.6337-3.3062-5.3871-5.9597-7.899-7.6598-2.5259-1.7095-4.7346-2.4086-6.3373-1.9481zm19.8135 17.0716c-1.5029-2.6031-3.3204-4.9732-5.3227-7.0337l.3745-.2353c2.0347 2.0938 3.8787 4.4993 5.4025 7.1385zm3.1584 7.6565c-.6082-2.4613-1.6553-5.0531-3.1584-7.6565l.4543-.1305c1.5239 2.6395 2.5871 5.2697 3.2051 7.7708zm.4935-.04c1.4016 3.6939 2.0767 7.0043 1.9601 9.5252-.1159 2.5072-1.0214 4.303-2.8799 4.837l-.2363-.4094c1.6027-.4604 2.4904-2.049 2.6045-4.5167.1135-2.454-.5445-5.7092-1.9344-9.3722zm-.9198 14.3622-5.4502 1.5659-.2364-.4093 5.4503-1.566zm-5.4502 1.5659c-.0128.0037-.0256.0072-.0384.0108l-.2313-.4107c.0111-.0031.0222-.0063.0333-.0094zm-.3744-.3693c.0334-.0096.0667-.0194.0998-.0293l.2411.408c-.0348.0104-.0696.0206-.1046.0306zm-25.1656-15.0564c3.0601 5.3003 7.422 9.6307 11.9883 12.3507 4.5681 2.721 9.3121 3.8162 13.1773 2.7057l.2363.4093c-4.0634 1.1675-8.9946 0-13.6596-2.7788-4.6668-2.7798-9.0961-7.1862-12.1965-12.5564z" fill="#2f2e0c"/><g mask="url(#c)"><path d="m47.3199 16.1369c.9837-.519 2.0723-.8994 3.2619-1.1243 9.8648-1.8651 22.9367 7.6686 29.1968 21.2941 6.2602 13.6255 3.3381 26.1831-6.5267 28.0482-2.3544.4451-4.6055.8707-6.9531 1.3145-9.8648 1.8651-22.9367-7.6686-29.1969-21.2941-6.2601-13.6255-3.338-26.1831 6.5268-28.0482 1.1896-.2249 2.4259-.284 3.6912-.1902z" fill="#2f2e0c" stroke="#2f2e0c" stroke-width=".472656"/></g><ellipse cx="22.3094" cy="14.937" fill="#aeff6e" rx="22.3094" ry="14.937" stroke="#2f2e0c" stroke-width=".472656" transform="matrix(-.5 -.866026 -.961117 .27614 105.209 76.261)"/><g mask="url(#d)"><path d="m62.2422 11.2253c1.1068.1101 2.2245.3937 3.3406.8626 9.2559 3.8887 14.8956 19.0531 12.5967 33.8706s-11.6659 23.6771-20.9217 19.7884c-2.2091-.9281-4.3212-1.8156-6.5238-2.741-9.2559-3.8887-14.8956-19.0531-12.5967-33.8706s11.6658-23.67708 20.9217-19.78837c1.1162.46895 2.1798 1.10187 3.1832 1.87837z" fill="#2f2e0c" stroke="#2f2e0c" stroke-width=".472656"/></g><path d="m55.1166 28.3988c.8179.3918 1.6688.5213 2.5726.5835l2.7532-3.5009 1.1954.5725-2.3649 3.0073c.9634.0598 1.8949.197 2.7757.6189.3565.1708.6744.354.957.582 1.4299-.6435 2.8423-1.2646 3.8482-2.5438 1.0413-1.3241.4892-2.2374-.9998-2.9506l1.263-1.4959c2.5066 1.108 2.9973 2.9805 1.3913 5.0227-1.2884 1.6383-2.9644 2.4111-4.5169 3.0269.5169.9581.4577 2.1347-.5659 3.4364-1.0412 1.324-2.6224 2.0497-3.9645 1.4068-1.2164-.5827-1.303-2.0145-.1559-3.4732.4413-.561.9763-.9844 1.5567-1.3553-.9824-.4396-1.9668-.5095-2.9832-.502l-1.8001 2.289-1.1954-.5725 1.3413-1.7056c-.8795-.0197-1.7481-.1268-2.6289-.5487-2.3907-1.1452-2.7382-3.567-.5674-6.3273 2.2766-2.895 5.2713-3.8395 8.0186-2.5236l-1.2574 1.7458c-2.0099-.9319-3.8494-.3918-5.2612 1.4036-1.4296 1.8178-.8795 3.1008.5885 3.804zm7.1941 5.7941c.6354-.8079.464-1.5079-.2336-2.0893-.6676.2982-1.2689.659-1.6395 1.1303-.5471.6957-.5259 1.2928.0823 1.5841.5872.2813 1.3143-.0192 1.7908-.6251z" fill="#aeff6e" stroke="#2f2e11" stroke-width=".472656"/><path clip-rule="evenodd" d="m73.7222 45.1511c-10.0126 8.7963-22.9037 10.4926-28.7932 3.7889-.0209-.0239-.0418-.0478-.0625-.0719-.0135-.0148-.0269-.0298-.0401-.0449l-4.0485-4.6083c-2.571-2.9265-.1563-9.4925 5.483-16.3176 1.6166-2.4732 3.6739-4.8617 6.1337-7.0227 2.4599-2.1611 5.0935-3.8936 7.7543-5.1783 7.4945-4.7131 14.3167-6.26201 16.8876-3.3356l4.0485 4.6083c.0118.0134.0235.0269.0351.0405.0226.0253.0452.0507.0676.0763 5.8895 6.7038 2.547 19.269-7.4655 28.0653z" fill="#aeff6e" fill-rule="evenodd"/><path d="m44.8665 48.8681.35-.3178.0078.009zm1.3944-20.9708.3956.2586-.0145.0221-.0168.0203zm13.888-12.201.2517.4001-.0224.0141-.0237.0115zm20.9712 1.3132-.3523.3153-.0073-.0085zm-35.836 31.6185c2.8086 3.197 7.3243 4.4338 12.4337 3.7615 5.1056-.6719 10.7468-3.2486 15.6924-7.5934l.6239.7101c-5.0669 4.4514-10.8776 7.1211-16.193 7.8205-5.3117.6989-10.1863-.5679-13.2671-4.0748zm-.0598-.0687c.0198.023.0398.0459.0598.0687l-.7101.6239c-.0219-.0249-.0437-.0498-.0653-.0749zm-.7077.6266c-.0153-.0168-.0304-.0337-.0453-.0507l.7101-.624c.0116.0132.0233.0263.035.0392zm-.0453-.0507-4.0485-4.6083.7102-.6239 4.0484 4.6082zm-4.0485-4.6083c-1.4612-1.6632-1.4308-4.2606-.4291-7.163 1.0118-2.9316 3.0613-6.3287 5.9028-9.7677l.7287.6021c-2.7977 3.3861-4.7752 6.6847-5.7379 9.474-.9727 2.8185-.8642 4.9674.2457 6.2307zm12.2837-23.2972c-2.4285 2.1335-4.4573 4.4897-6.05 6.9262l-.7913-.5172c1.6407-2.5099 3.7263-4.9307 6.2174-7.1192zm7.648-5.1077c-2.6214 1.2656-5.2194 2.9741-7.648 5.1077l-.6239-.7102c2.4912-2.1885 5.1605-3.9451 7.8608-5.2488zm-.4572-.8258c3.7763-2.3748 7.4089-3.9697 10.4464-4.5954 3.0071-.6196 5.5868-.3152 7.0479 1.348l-.7101.6239c-1.1098-1.2632-3.2268-1.6477-6.1471-1.0461-2.89.5954-6.4157 2.1315-10.1338 4.4698zm17.4943-3.2474 4.0485 4.6083-.7102.6239-4.0484-4.6083zm4.0485 4.6083c.0133.0151.0265.0303.0396.0456l-.7192.6136c-.0101-.0118-.0203-.0236-.0306-.0353zm-.6075.7406c-.0215-.0244-.043-.0487-.0647-.073l.7044-.6304c.0236.0264.0471.0529.0705.0795zm-7.4224 27.3984c4.9457-4.3449 8.2274-9.6072 9.5512-14.5838 1.3248-4.9803.6798-9.6176-2.1288-12.8146l.7102-.6239c3.0809 3.5069 3.7094 8.504 2.3322 13.6815-1.3782 5.181-4.774 10.5995-9.8409 15.0509z" fill="#2f2e0c" mask="url(#e)"/><path d="m40.9557 44.0582c2.8767 3.2744 7.4821 4.5187 12.642 3.8397 5.1581-.6787 10.8416-3.2786 15.8176-7.6501s8.2862-9.6729 9.6236-14.7006c1.3379-5.0296.697-9.7569-2.1796-13.0313-2.8767-3.27439-7.4821-4.51875-12.642-3.83976-5.1581.67875-10.8416 3.27866-15.8176 7.65016s-8.2862 9.6729-9.6236 14.7006c-1.3379 5.0295-.6971 9.7568 2.1796 13.0313z" fill="#aeff6e" stroke="#2f2e0c" stroke-width=".472656"/><path d="m43.3477 41.9574c2.3253 2.6468 6.1621 3.5686 10.5349 2.863 4.3691-.7049 9.2356-3.032 13.5532-6.8251 4.3177-3.7932 7.2521-8.3195 8.5139-12.5614 1.2628-4.2455.8429-8.1691-1.4824-10.8159-2.3254-2.6468-6.1622-3.5686-10.535-2.8631-4.3691.705-9.2356 3.0321-13.5532 6.8252-4.3176 3.7932-7.2521 8.3195-8.5139 12.5613-1.2628 4.2455-.8428 8.1691 1.4825 10.816z" fill="#aeff6e" stroke="#2f2e0c" stroke-width=".472656"/><path d="m51.9383 34.1969c-1.6569-.6369-2.952-1.3587-3.8854-2.1653-.9277-.8044-1.4297-1.6568-1.5059-2.5572-.0763-.9004.3224-1.8014 1.1961-2.7031l7.0768 2.7204c-.4636.4731-.6707.9064-.6213 1.2999.0551.3957.3579.6993.9083.9109.3819.1468.7771.197 1.1857.1505.4141-.0443.7773-.2182 1.0897-.5214.2042-.1983.3136-.3883.3282-.5699.0202-.1795-.0454-.3594-.1969-.5398-.1398-.184-.3644-.3884-.6738-.6132l-2.3457-1.7076c-.8232-.6014-1.481-1.1922-1.9734-1.7722-.4868-.5779-.7271-1.2239-.7208-1.9379.0062-.7141.4117-1.4619 1.2166-2.2434 1.0331-1.0032 2.2593-1.6838 3.6786-2.0418 1.4253-.364 2.9062-.4582 4.4425-.2828 1.542.1775 3.0572.5524 4.5456 1.1245 1.4041.5398 2.574 1.189 3.5097 1.9476.9474.7549 1.5161 1.5882 1.7062 2.4999.1958.9138-.1185 1.8432-.9428 2.7882l-6.7988-2.6135c.4476-.4956.6335-.9044.5576-1.2267-.0758-.3222-.3384-.5697-.7877-.7424-.3988-.1533-.8172-.1961-1.2554-.1285-.4382.0677-.8074.2473-1.1077.539l-.0541.0524c-.1569.1677-.2359.3205-.2369.4585.0046.1402.0557.2657.1533.3764.0976.1108.2401.2389.4275.3842l3.3536 2.5104c.0221.0166.0414.0321.0578.0466.7342.5509 1.2821 1.1075 1.6437 1.6699.3677.5565.4896 1.1651.3658 1.8258-.1177.6549-.561 1.3556-1.3299 2.1021-1.015.9857-2.2262 1.6518-3.6335 1.9982s-2.9101.42-4.5082.2209c-1.5865-.2028-3.2082-.6227-4.8651-1.2596zm-1.8074-1.3054 4.4652 1.7165-1.9821 1.9246-4.4652-1.7164zm14.7275-14.4149 4.4652 1.7164-1.892 1.8372-4.4652-1.7164z" fill="#aeff6e"/><path d="m51.9383 34.1969c-1.6569-.6369-2.952-1.3587-3.8854-2.1653-.9277-.8044-1.4297-1.6568-1.5059-2.5572-.0763-.9004.3224-1.8014 1.1961-2.7031l7.0768 2.7204c-.4636.4731-.6707.9064-.6213 1.2999.0551.3957.3579.6993.9083.9109.3819.1468.7771.197 1.1857.1505.4141-.0443.7773-.2182 1.0897-.5214.2042-.1983.3136-.3883.3282-.5699.0202-.1795-.0454-.3594-.1969-.5398-.1398-.184-.3644-.3884-.6738-.6132l-2.3457-1.7076c-.8232-.6014-1.481-1.1922-1.9734-1.7722-.4868-.5779-.7271-1.2239-.7208-1.9379.0062-.7141.4117-1.4619 1.2166-2.2434 1.0331-1.0032 2.2593-1.6838 3.6786-2.0418 1.4253-.364 2.9062-.4582 4.4425-.2828 1.542.1775 3.0572.5524 4.5456 1.1245 1.4041.5398 2.574 1.189 3.5097 1.9476.9474.7549 1.5161 1.5882 1.7062 2.4999.1958.9138-.1185 1.8432-.9428 2.7882l-6.7988-2.6135c.4476-.4956.6335-.9044.5576-1.2267-.0758-.3222-.3384-.5697-.7877-.7424-.3988-.1533-.8172-.1961-1.2554-.1285-.4382.0677-.8074.2473-1.1077.539l-.0541.0524c-.1569.1677-.2359.3205-.2369.4585.0046.1402.0557.2657.1533.3764.0976.1108.2401.2389.4275.3842l3.3536 2.5104c.0221.0166.0414.0321.0578.0466.7342.5509 1.2821 1.1075 1.6437 1.6699.3677.5565.4896 1.1651.3658 1.8258-.1177.6549-.561 1.3556-1.3299 2.1021-1.015.9857-2.2262 1.6518-3.6335 1.9982s-2.9101.42-4.5082.2209c-1.5865-.2028-3.2082-.6227-4.8651-1.2596zm-1.8074-1.3054 4.4652 1.7165-1.9821 1.9246-4.4652-1.7164zm14.7275-14.4149 4.4652 1.7164-1.892 1.8372-4.4652-1.7164z" mask="url(#f)" stroke="#2f2e0c" stroke-linejoin="round" stroke-width=".945312"/><path d="m67.1746 91.5481-54.0329 30.9089 4.391 4.299 11.0393 2.494-5.7956 9.014 4.391 4.299 26.4531 5.976 7.6522-11.902 14.887 3.363-4.5941-44.153z" fill="#f1f1ed" stroke="#2f2e0c" stroke-linejoin="round" stroke-width=".472656"/><path d="m17.5327 126.756 54.0329-30.9088 4.5941 44.1528-14.887-3.363-7.726 12.112-26.3793-6.186 7.6522-11.902z" fill="#fbfbf3"/><path d="m17.5327 126.756 11.0393 2.494m-11.0393-2.494 54.0329-30.9088 4.5941 44.1528-14.887-3.363-7.726 12.112-26.3793-6.186 7.6522-11.902z" stroke="#2f2e0c" stroke-linejoin="round" stroke-width=".472656"/></g></svg>