<svg fill="none" height="150" viewBox="0 0 150 150" width="150" xmlns="http://www.w3.org/2000/svg" xmlns:xlink="http://www.w3.org/1999/xlink"><clipPath id="a"><path d="m0 .289062h150v150h-150z"/></clipPath><mask id="b" height="102" maskUnits="userSpaceOnUse" width="82" x="5" y="44"><path d="m6.20618 103.59c-.7861-1.206-.71233-2.704.18318-3.7215l47.74464-54.2255c1.4397-1.6351 4.2416-1.2929 5.4649.6675l25.8005 41.3477c.754 1.2084.657 2.6886-.2417 3.687l-47.521 52.7938c-1.4306 1.59-4.1663 1.27-5.4063-.632z" fill="#2f2e0c" stroke="#efe6c9" stroke-linejoin="round" stroke-width=".604839"/></mask><g clip-path="url(#a)"><path d="m0 0h150v150h-150z" fill="#fff"/><path d="m6.20764 103.59c-.7861-1.206-.71232-2.704.18318-3.7215l47.74468-54.2255c1.4397-1.6351 4.2416-1.2929 5.4649.6675l25.8005 41.3477c.754 1.2084.6569 2.6886-.2418 3.687l-47.521 52.7938c-1.4306 1.59-4.1662 1.27-5.4063-.632z" fill="#2f2e0c" stroke="#2f2e0c" stroke-linejoin="round" stroke-width=".604839"/><path d="m34.4545 111.364c-.1063-.16-.0971-.361.0227-.497l33.2821-37.8002c.195-.2214.5759-.1695.7337.1l6.0209 10.2837c.0932.1591.0777.3499-.0389.4793l-33.1474 36.8262c-.1895.21-.5515.169-.7174-.082z" fill="#f1f1ed" stroke="#2f2e0c" stroke-linejoin="round" stroke-width=".604839"/><path d="m58.2259 102.104 19.3141-21.1644" stroke="#2f2e0c" stroke-width=".604839"/><path d="m24.0316 97.2197c-.1062-.1607-.097-.3615.0228-.4975l33.2821-37.7999c.1949-.2214.5759-.1695.7336.0999l6.021 10.2838c.0931.159.0776.3498-.0389.4793l-33.1474 36.8257c-.1895.211-.5515.169-.7175-.082z" fill="#f1f1ed" stroke="#2f2e0c" stroke-linejoin="round" stroke-width=".604839"/><path d="m6.08549 104.682c-1.0894-1.771-.30719-3.944 1.63398-4.539l70.96373-21.7508c1.5342-.4703 3.2774.225 4.1098 1.6393l27.187 46.1885c1.083 1.839.174 4.047-1.866 4.535l-72.4644 17.323c-1.4696.352-3.071-.324-3.8775-1.635z" fill="#f1f1ed" stroke="#2f2e0c" stroke-linejoin="round" stroke-width=".604839"/><path d="m67.6565 106.337c-1.0894-1.771-.3072-3.944 1.634-4.539l22.273-6.8265 9.1735 15.6225-22.8188 7.308c-1.5175.486-3.2578-.178-4.1136-1.569z" stroke="#2f2e0c" stroke-linejoin="round" stroke-width=".604839"/><path d="m87.6892 105.633c.7127 2.178-.64 4.439-3.0774 5.018-2.4374.58-4.9672-.757-5.6799-2.935-.7127-2.179.64-4.439 3.0774-5.018 2.4375-.58 4.9672.757 5.6799 2.935z" stroke="#2f2e0c" stroke-width=".604839"/><g mask="url(#b)"><path d="m14.5055 96.117c16.0297-18.1916 43.208-49.1437 43.9812-50.0642.9666-1.1507 2.2625-2.1172 3.6059-.0742" stroke="#fff" stroke-width=".604839"/></g><g fill="#aeff6e"><path d="m115.058 77.1003c-7.915 8.1643-8.929 20.0196-8.929 20.0196l4.347 4.2291c4.997 4.845 15.464 2.154 23.382-6.0128 7.917-8.1671 10.285-18.7153 5.287-23.5599l-4.544-4.4083s-11.629 1.5679-19.543 9.7323z" stroke="#2f2e0c" stroke-linejoin="round" stroke-width=".604839"/><ellipse cx="20.5892" cy="13.7853" rx="20.5892" ry="13.7853" stroke="#2f2e0c" stroke-linejoin="round" stroke-width=".604839" transform="matrix(-.696052 .717991 .717991 .696052 124.904 57.9688)"/><path d="m122.197 43.6671c2.194 9.147 10.025 15.1098 10.025 15.1098l4.88-1.1609c5.599-1.3428 8.36-9.8458 6.165-18.9959-2.194-9.1501-8.512-15.4792-14.111-14.1364l-5.093 1.2202s-4.06 8.8163-1.866 17.9632z" stroke="#2f2e0c" stroke-linejoin="round" stroke-width=".604839"/><ellipse cx="17.0317" cy="11.4034" rx="17.0317" ry="11.4034" stroke="#2f2e0c" stroke-linejoin="round" stroke-width=".604839" transform="matrix(.233219 .972424 .972424 -.233219 113.199 28.3105)"/><path d="m53.4377 10.7116c-6.1142 4.5491-8.0601 12.2824-8.0601 12.2824l2.4201 3.2655c2.7845 3.7425 9.9979 3.0889 16.1142-1.4618 6.1163-4.5506 8.8173-11.2735 6.0329-15.01601l-2.5321-3.40509s-7.8607-.21405-13.975 4.335z" stroke="#2f2e0c" stroke-linejoin="round" stroke-width=".604839"/><ellipse cx="13.7989" cy="9.23885" rx="13.7989" ry="9.23885" stroke="#2f2e0c" stroke-linejoin="round" stroke-width=".604839" transform="matrix(-.802299 .596923 .596923 .802299 62.0098 -.884766)"/><path d="m22.4741 41.9428c-3.2495 6.8933-1.3222 14.6313-1.3222 14.6313l3.6733 1.7399c4.2194 1.989 10.2739-1.9862 13.5246-8.882 3.2506-6.8957 2.4653-14.0982-1.754-16.0872l-3.8379-1.8104s-7.0342 3.515-10.2838 10.4084z" stroke="#2f2e0c" stroke-linejoin="round" stroke-width=".604839"/><ellipse cx="13.7989" cy="9.23885" rx="13.7989" ry="9.23885" stroke="#2f2e0c" stroke-linejoin="round" stroke-width=".604839" transform="matrix(-.4264 .904535 .904535 .4264 24.571 27.6738)"/><path d="m97.2898 21.1082c7.4322 3.0093 15.4482.5304 15.4482.5304l1.613-3.961c1.842-4.5493-2.69-10.67662-10.125-13.68694-7.435-3.010318-14.9554-1.76268-16.7974 2.78668l-1.6766 4.13796s4.1054 7.1836 11.5378 10.1929z" stroke="#2f2e0c" stroke-linejoin="round" stroke-width=".604839"/><ellipse cx="14.5189" cy="9.72092" rx="14.5189" ry="9.72092" stroke="#2f2e0c" stroke-linejoin="round" stroke-width=".604839" transform="matrix(.926907 .375291 .375291 -.926907 82.1785 19.7422)"/><path d="m113.27 92.4073c.45-.0036.941-.0625 1.473-.1757l-.514 1.8492c-.031.1103-.013.2176.046.2845.059.067.152.0844.247.0462l4.071-1.6443c.108-.0436.2-.1522.235-.2783l.577-2.0745c.703-.3777 1.379-.7906 2.029-1.2389v-.0005c1.325-.9195 2.472-1.9881 3.439-3.2074.974-1.2293 1.667-2.5784 2.074-4.0422.304-1.0933.388-1.9889.2-2.6409-.183-.6471-.558-1.0761-1.117-1.2745-.53-.1968-1.194-.2543-1.984-.1848-.023.0003-.047.0016-.072.0038h-.001l-3.53.3195c-.19.0133-.328.0098-.422-.0054-.058-.0093-.094-.0348-.119-.0751-.007-.0187-.021-.0871.021-.2657l.019-.0667c.095-.3445.27-.6587.534-.9486.27-.2967.56-.5053.873-.6319.362-.1463.548-.1053.647-.0011.04.0415.078.125.085.2948.007.1708-.019.4079-.089.7217-.024.1069-.003.2077.057.2696.06.0618.15.0768.241.0399l6.199-2.5037c.117-.047.213-.1689.241-.3051.275-1.3134.159-2.3305-.419-2.9676-.551-.6156-1.373-.8765-2.432-.8184-.368.0167-.753.0637-1.154.1407l.487-1.7514c.031-.1103.014-.2176-.046-.2846-.059-.0669-.152-.0843-.247-.0461l-4.071 1.6442c-.108.0437-.2.1523-.235.2783l-.555 1.9983c-.567.3228-1.123.677-1.669 1.0625v.0001c-1.27.8982-2.391 1.9684-3.363 3.2108-.979 1.2459-1.677 2.6151-2.09 4.1026-.321 1.1525-.362 2.0836-.041 2.7178.304.6016.791.9639 1.444 1.0885l.001.0002c.627.1163 1.381.1263 2.257.0352l2.452-.2597h.001c.311-.0334.532-.025.674.012.004.0011.009.002.013.0028.137.0266.187.0854.207.1398v.0001l.004.0083c.022.0554.033.1766-.035.4229-.101.3636-.273.6631-.517.9123l-.001.0016c-.256.2646-.534.4567-.838.5793-.452.1828-.675.1227-.788-.026-.117-.1636-.155-.4968.005-1.12.028-.109.009-.2139-.05-.2789-.06-.065-.152-.0815-.245-.0438l-6.453 2.606c-.111.0449-.204.1583-.237.2882-.33 1.305-.297 2.3487.169 3.061.458.702 1.247 1.0254 2.312 1.0191z" stroke="#2f2e0c" stroke-linejoin="round" stroke-width=".604839"/><path clip-rule="evenodd" d="m40.8769 90.2168c-.2177-3.0028-1.9256-6.5591-4.8749-9.5781-4.8867-5.0022-11.3294-6.6333-14.3901-3.6432l-2.639 2.5768c3.3552-3.2428 10.0106-1.8357 14.8849 3.1536 2.4833 2.542 4.0263 5.5246 4.5033 8.2726zm-22.05-10.502.1036-.1011c-.0349.0345-.0693.0693-.1032.1044z" fill-rule="evenodd"/></g><path d="m40.8769 90.2168.0898.2888c.1342-.0417.222-.1705.2119-.3107zm-4.8749-9.5781-.2163.2113zm-14.3901-3.6432.2112.2164h.0001zm-2.639 2.5768-.2113-.2164c-.1193.1165-.1218.3076-.0056.4271.1161.1196.3072.1226.427.0068zm14.8849 3.1536-.2164.2114zm4.5033 8.2726-.298.0517c.0149.0857.066.1609.1402.2063.0743.0454.1644.0566.2475.0308zm-19.4306-11.3848.2123.2153c.1187-.1171.1203-.3081.0035-.4271s-.3078-.121-.4271-.0046zm-.1036.1011-.2113-.2163c-.0665.0649-.0995.1569-.0893.2493zm.0004.0033-.3007.033c.0128.1167.092.2154.203.2533.1111.0379.234.0081.3154-.0764zm22.3513 10.4768c-.2241-3.0907-1.9742-6.7109-4.9603-9.7676l-.4326.4227c2.9126 2.9814 4.5783 6.4739 4.7896 9.3887zm-4.9603-9.7676c-2.4758-2.5343-5.3555-4.2254-8.0219-4.9005-2.6606-.6735-5.1618-.344-6.7959 1.2524l.4227.4327c1.4266-1.3937 3.6771-1.7437 6.2248-1.0987 2.5417.6435 5.3268 2.2689 7.7377 4.7368zm-14.8177-3.6481-2.639 2.5767.4225.4328 2.639-2.5768zm-2.2176 3.0106c1.5831-1.5301 3.9711-1.9885 6.6001-1.4319 2.6265.5561 5.4572 2.1215 7.8583 4.5794l.4327-.4227c-2.4731-2.5316-5.4072-4.1643-8.1658-4.7484-2.7561-.5835-5.3735-.1241-7.1456 1.5887zm14.4584 3.1475c2.4468 2.5045 3.9566 5.4333 4.4217 8.1129l.596-.1034c-.4889-2.8164-2.0651-5.8527-4.585-8.4322zm7.1458 6.9907-2.5158.7817.1794.5776 2.5159-.7817zm-22.068-10.5307-.1036.1012.4226.4327.1035-.1011zm.3258.5307c.0322-.0334.0648-.0663.0978-.099l-.4247-.4306c-.0367.0363-.0729.0729-.1086.1099zm-.5187-.1802.0003.0033.6013-.0659-.0004-.0033z" fill="#2f2e0c"/><path clip-rule="evenodd" d="m23.0921 95.7084 15.3462-4.7682c-.477-2.7479-2.0199-5.7305-4.5033-8.2724-4.885-5.0005-11.5592-6.4027-14.9072-3.132-3.3479 3.2707-2.1019 9.9758 2.7831 14.9763.4152.4249.8433.8239 1.2812 1.1963z" fill="#aeff6e" fill-rule="evenodd"/><path d="m38.4383 90.9402.0898.2888c.1451-.0451.2342-.1909.2082-.3406zm-15.3462 4.7682-.1959.2304c.0789.0671.1867.0891.2856.0584zm10.8429-13.0406-.2163.2113zm-14.9072-3.132-.2113-.2163zm2.7831 14.9763-.2163.2113zm16.5377-3.8607-15.3463 4.7682.1795.5776 15.3463-4.7682zm.3877.237c-.4889-2.8162-2.065-5.8526-4.5849-8.432l-.4327.4227c2.4468 2.5045 3.9565 5.4332 4.4217 8.1128zm-4.5849-8.432c-2.4787-2.5371-5.4203-4.1716-8.1842-4.7523-2.7615-.5801-5.3823-.1122-7.1507 1.6154l.4227.4326c1.5796-1.5431 3.9699-2.0094 6.6037-1.456 2.6314.5528 5.4694 2.1197 7.8758 4.583zm-15.3349-3.1369c-1.7684 1.7276-2.2974 4.3367-1.7818 7.1111.516 2.7767 2.0813 5.7556 4.5599 8.2928l.4327-.4227c-2.4065-2.4632-3.9067-5.337-4.398-7.9807-.4917-2.6459.0303-5.0247 1.6099-6.5679zm2.7781 15.4039c.4217.4316.8566.837 1.3016 1.2154l.3918-.4608c-.4308-.3663-.8521-.7589-1.2607-1.1773z" fill="#2f2e0c"/><path d="m136.868 87.8527c-1.056-.953-2.148-.6558-3.182.0384-4.452 5.6314-7.63 8.6558-14.395 11.0237-5.862 2.0522-9.73.3633-11.905-.6777l3.918 4.0089c10.293 5.14 21.349-5.0639 25.92-10.7835.561-.9335 1.157-2.243-.356-3.6098z" fill="#2f2e0c"/><path d="m138.16 30.8747c1.36-.5005 2.777.6534 3.069 1.4756 1.126 1.7731 2.671 7.2381 2.954 9.6755.354 3.0468.063 6.8748-1.614 10.9365-1.092 2.6436-3.433 4.1191-4.467 4.5264l-3.957.5844c.363-.3116 1.338-1.1464 2.339-1.9919 1.252-1.0569 2.527-2.7676 3.562-7.8005.828-4.0264-.016-9.7895-2.802-14.9118-.137-1.2133-.443-1.9937.916-2.4942z" fill="#2f2e0c"/></g></svg>