<svg fill="none" height="150" viewBox="0 0 150 150" width="150" xmlns="http://www.w3.org/2000/svg" xmlns:xlink="http://www.w3.org/1999/xlink"><clipPath id="a"><path d="m0 0h150v150h-150z"/></clipPath><mask id="b" height="26" maskUnits="userSpaceOnUse" width="37" x="20" y="31"><path d="m41.7493 31.9763c-.0066-.003-.0131-.006-.0197-.009 0 0-2.1994.7013-7.1178.7144-4.924-.0131-6.9342-.7144-6.9342-.7144-2.0728.9428-5.1897 2.2625-5.1897 2.2625l-1.3381 10.2876 10.0133 7.9319c.0042.0347.0061.0519.0061.0519l8.2779 3.5846.0248.1034.0526-.0279.0067.0279.0694-.0369.0851.0369-.0051-.0279.0644.0279-.0191-.1034 6.754-3.5846s-.0016-.0131-.0049-.0393l9.7554-7.0243-7.2536-10.4118s-4.6744-1.8789-7.1815-3.0283c-.0021-.0101-.0042-.0201-.0064-.0302 0 0-.0133.0031-.0396.009z" fill="#fff" stroke="#000" stroke-dasharray="1.84 1.84" stroke-width=".5"/></mask><mask id="c" height="39" maskUnits="userSpaceOnUse" width="55" x="71" y="56"><path d="m110.978 56.939c-.008-.0047-.017-.0094-.025-.0141 0 0-3.821 1.0909-11.4274 1.1112-4.9327-.0132-7.7928-.447-9.1927-.7498-.7134-.1544-1.5021-.1266-2.2518.1583-3.6606 1.3912-8.2196 2.9996-8.2196 2.9996l-8.2674 16.0023 10.6899 12.338c-.0144.0539-.0217.0807-.0217.0807l10.6287 5.5759-.0239.1608.098-.0434-.0064.0434.1294-.0573.1093.0573.0088-.0434.0828.0434.0328-.1608 12.5952-5.5759s.005-.0204.016-.061l19.305-10.9263-4.894-16.0222s-6.127-3.0959-9.308-4.8838c.003-.0156.006-.0313.009-.047 0 0-.023.0049-.067.0141z" fill="#fff" stroke="#000" stroke-linejoin="round" stroke-width=".5"/></mask><g clip-path="url(#a)"><path d="m0 0h150v150h-150z" fill="#fff"/><path d="m112.244 38.6195c-.768.1392-1.48-.2698-1.561-.8971l-1.719-13.3012c-.071-.5514-.899-.7464-1.383-.3258l-11.6489 10.1237c-.5518.4796-1.4523.5081-1.9728.0625l-11.0331-9.4456c-.4573-.3915-1.3013-.142-1.4081.4163l-2.5687 13.4157c-.122.6371-.8678 1.0947-1.6316 1.001l-16.1129-1.978c-.67-.0822-1.2079.5173-.8965.9993l7.4903 11.5951c.3549.5493.0516 1.2612-.6634 1.5573l-15.0505 6.2333c-.6266.2595-.6522.9793-.0429 1.2011l14.7044 5.3531c.6934.2524.9473.9443.5565 1.516l-8.2495 12.0667c-.3429.5016.1526 1.0667.828.9444l16.2928-2.9511c.7684-.1392 1.4802.2699 1.5613.8972l1.7192 13.3013c.0712.5514.8986.7464 1.3826.3258l11.6428-10.1168c.5516-.4793 1.4517-.508 1.9723-.0629l11.0397 9.4401c.457.3912 1.301.1415 1.408-.4167l2.563-13.409c.121-.6371.867-1.0948 1.631-1.0014l16.119 1.9719c.67.0819 1.208-.5178.896-.9997l-7.495-11.588c-.356-.5493-.053-1.2614.662-1.5577l15.057-6.2398c.627-.2597.652-.9796.042-1.2011l-14.709-5.3465c-.693-.2522-.948-.9444-.557-1.5163l8.256-12.0737c.343-.5016-.153-1.0668-.828-.9444z" fill="#fff" stroke="#2f2e0c" stroke-width=".5"/><path d="m23.0381 104.779 87.1239 36.823-9.357-36.823z" fill="#2f2e0c"/><g stroke="#2f2e0c"><rect fill="#fff" height="68.0722" rx="2.87436" stroke-width=".5" transform="matrix(1 0 .201661 .974107 7.52999 38.1968)" width="57.2574" x=".300415" y=".243527"/><path d="m23.5786 87.9482h16.7025" stroke-width=".919306"/><path d="m24.406 91.5312h36.7697" stroke-width=".919306"/><path d="m25.2329 95.1141h27.9648" stroke-width=".919306"/><path d="m5.5346 27.1087c-.32013-1.5464.70725-2.7999 2.29471-2.7999h51.50869c1.5875 0 3.1339 1.2535 3.454 2.7999l10.8733 52.5227h-57.2574z" fill="#f1f1ed" stroke-width=".5"/></g><path clip-rule="evenodd" d="m41.7282 31.9673.0197.0091c.0263-.0059.0396-.0091.0396-.0091l.0065.0303c2.507 1.1493 7.1814 3.0283 7.1814 3.0283l.052.0747c.1586.0724.3372.1548.538.2482 2.7995 1.3021 14.6308 13.7787 14.6308 13.7787l-.0633.0406c.638.6578.0704 1.9619-1.5621 3.2844-2.0563 1.6657-5.0233 2.73-6.6271 2.3771-.1572-.0346-.2955-.0815-.4151-.1396l-.1228.0789-1.3731-1.5241 4.2788 20.1304h-27.8037l-4.3383-20.4097c-.0836.0709-.2114.1205-.3856.1463-1.2779.1888-4.5655-.9798-7.4549-2.7007-2.6127-1.5562-3.9311-2.9711-3.2146-3.3674.7521-2.0754 4.1036-10.9438 7.0485-12.6509.1303-.0755.2366-.1252.3229-.1572l.0007-.0058s3.1169-1.3197 5.1897-2.2625c0 0 2.0102.7013 6.9342.7144 4.9185-.0131 7.1178-.7144 7.1178-.7144z" fill="#fff" fill-rule="evenodd"/><path d="m41.7479 31.9764.1041.2389-.0846.0189-.0892-.041zm-.0197-.0091-.1227-.2338.0917-.0293.1007.0464zm.0593 0-.1068-.2382.2915-.0691.0653.3073zm.0065.0303-.0691.217-.1494-.0685-.0315-.1485zm7.1814 3.0283.055-.2231.0919.037.0568.0814zm.052.0747-.0687.2172-.083-.0379-.052-.0747zm.538.2482-.0707.2162zm14.6308 13.7787.1725-.1429.2081.2195-.2106.1352zm-.0633.0406-.1699.1455-.2136-.2203.2135-.137zm-1.5621 3.2844.1867.1997zm-6.6271 2.3771.0068-.238zm-.4151-.1396-.17-.2117.1077-.0692.1379.067zm-.1228.0789.17.2117-.1778.1142-.1705-.1893zm-1.3731-1.5241h-.25l-.1703-.801.5986.6644zm4.2788 20.1304h.25l.052.2445h-.25zm-27.8037 0 .0519.2445h-.25l-.0519-.2445zm-4.3383-20.4097-.1899-.1971.3373-.286.1026.4831zm-.3856.1463.0876.2419zm-7.4549-2.7007-.1003.2006zm-3.2146-3.3674.2434.1199-.0235.0648-.0607.0335zm7.0485-12.6509.1627.2163zm.3229-.1572.2535.0776-.0147.1134-.1068.0397zm.0007-.0058-.2535-.0776.0139-.1077.0991-.042zm5.1897-2.2625-.1455-.2251.0849-.0386.102.0356zm6.9342.7144.0527.2446h-.0014zm7.0333-.9442c.0035-.0008.0067-.0015.0096-.0022l.209.4777c-.0032.0007-.0066.0015-.0103.0023zm.0284-.0064c.0031-.0007.0053-.0013.0068-.0016.0007-.0002.0012-.0003.0015-.0004h.0003s0 0 .1068.2382c.1069.2383.1069.2383.1069.2383h-.0001v.0001c-.0001 0-.0002 0-.0002 0-.0002 0-.0004.0001-.0007.0001-.0005.0002-.0012.0003-.0022.0006-.0018.0004-.0045.001-.0081.0018zm.3654.2362.0016.0076h-.5l-.0016-.0076zm.0048.0227.0017.0076h-.5l-.0017-.0076zm-.1793-.2095c.2722.1248.5705.2585.8863.3976l-.1295.438c-.3179-.1401-.6192-.2751-.8949-.4015zm2.6743 1.1683c.6107.2586 1.2251.5152 1.7951.7512l-.1162.4436c-.5712-.2365-1.1872-.4937-1.7999-.7532zm3.5949 1.4901c.2766.1126.5013.2036.6567.2665.0777.0314.1382.0558.1791.0723.0205.0082.0361.0145.0466.0188.0053.0021.0092.0037.0119.0047.0013.0006.0023.001.0029.0012.0004.0002.0006.0003.0008.0003.0001.0001.0001.0001.0002.0001s0 0-.055.2231c-.0551.223-.0551.223-.0551.223s0 0-.0001 0c0 0-.0001-.0001-.0002-.0001-.0001-.0001-.0004-.0002-.0007-.0003-.0007-.0003-.0017-.0007-.0031-.0012-.0027-.0011-.0067-.0027-.012-.0048-.0105-.0043-.0263-.0106-.0468-.0189-.0412-.0166-.1018-.0411-.1798-.0726-.1558-.063-.3809-.1542-.6581-.267zm1.0469.4823.013.0187-.4074.2093-.013-.0187zm.039.056.013.0187-.4074.2093-.013-.0186zm-.122-.0938c.0436.0199.0886.0405.1352.0619l-.1386.4339c-.0462-.0213-.0908-.0417-.134-.0614zm.4052.1865c.0438.0203.0887.0412.1348.0626l-.1414.4325c-.0459-.0213-.0905-.042-.134-.0622zm.1348.0626c.2542.1182.5598.311.9.5548l-.2483.37c-.3279-.235-.594-.3996-.7931-.4923zm2.504 1.8368c.473.4052.9826.8591 1.5154 1.3465l-.3109.3192c-.529-.4838-1.033-.9327-1.499-1.3319zm2.9944 2.7265c.4792.4549.9671.9247 1.4558 1.4002l-.3262.3049c-.487-.4739-.9729-.9417-1.4497-1.3944zm2.8949 2.8144c.4855.4814.9639.9597 1.4269 1.4255l-.3342.297c-.4619-.4648-.9391-.9419-1.4233-1.422zm2.843 2.8596c.5094.519.9836 1.0055 1.4081 1.443l-.3398.2912c-.4237-.4367-.897-.9222-1.4054-1.4402zm2.8068 2.8928c.2189.2283.3912.4087.5088.5321.0588.0617.1039.1091.1344.1412.0152.016.0268.0282.0345.0363.0039.0041.0069.0072.0088.0093.001.001.0018.0018.0023.0023.0002.0003.0004.0005.0005.0006s.0001.0001.0002.0002 0 0-.1725.1429c-.1726.1428-.1726.1428-.1726.1428-.0001-.0001-.0001-.0001-.0002-.0002s-.0003-.0003-.0005-.0005c-.0005-.0005-.0012-.0013-.0021-.0023-.002-.002-.0049-.0051-.0087-.0091-.0077-.0081-.0191-.0201-.0342-.0361-.0303-.0318-.0752-.079-.1338-.1405-.1172-.1229-.2891-.3029-.5075-.5307zm.687 1.0767-.0158.0101-.3401-.4236.0159-.0101zm-.0475.0304-.0158.0101-.34-.4235.0158-.0102zm-.0158-.3472c.3459.3568.4014.8131.2873 1.2607l-.498-.2034c.0949-.3722.0169-.6155-.1292-.7662zm-.8077 2.9635c-.2164.2204-.4626.4434-.7377.6662l-.3734-.3994c.2653-.215.5011-.4287.7071-.6384zm-.7377.6662c-.2255.1827-.4616.3581-.7053.5252l-.3497-.4171c.236-.1618.4641-.3314.6816-.5075zm-2.238 1.4218c-.5588.2766-1.128.5079-1.6806.6836l-.2451-.4678c.5308-.1689 1.0809-.3921 1.623-.6605zm-3.5406 1.0584c-.3727.0228-.7255.0049-1.0421-.0648l.0137-.476c.2516.0554.5524.0735.8937.0526zm-1.0421-.0648c-.0403-.0089-.0799-.0186-.1188-.0291l.0411-.4692c.0293.0079.0597.0153.0914.0223zm-.361-.1094c-.042-.0168-.0829-.0349-.1228-.0542l.1512-.4279c.0253.0123.0522.0242.0808.0356zm.1228-.0564-.0307.0197-.34-.4235.0307-.0197zm-.0921.0591-.0307.0197-.34-.4235.0307-.0197zm-.379-.0554-.3433-.3811.3567-.2731.3432.381zm-1.0299-1.1431-.3433-.381.3567-.2732.3433.381zm.0851-.5176.1782.8387h-.5l-.1782-.8387zm.5348 2.5163.3566 1.6775h-.5l-.3566-1.6775zm.7132 3.355.3565 1.6776h-.5l-.3565-1.6776zm.7131 3.3551.3566 1.6776h-.5l-.3566-1.6776zm.7131 3.3551.3566 1.6775h-.5l-.3566-1.6775zm.7132 3.3551.3566 1.6775h-.5l-.3566-1.6775zm.7131 3.355.1783.8388h-.5l-.1783-.8388zm-.0197 1.0833h-.8689l-.1039-.489h.8688zm-2.6066 0h-1.7377l-.104-.489h1.7377zm-3.4755 0h-1.7377l-.104-.489h1.7378zm-3.4754 0h-1.7378l-.1039-.489h1.7377zm-3.4755 0h-1.7377l-.104-.489h1.7377zm-3.4755 0h-1.7377l-.104-.489h1.7378zm-3.4755 0h-1.7377l-.1039-.489h1.7377zm-3.4754 0h-1.7378l-.1039-.489h1.7377zm-3.4755 0h-.8689l-.1039-.489h.8689zm-1.1708-.2445-.1808-.8504h.5l.1808.8504zm-.5423-2.5512-.3615-1.7008h.5l.3615 1.7008zm-.723-3.4016-.3616-1.7008h.5l.3616 1.7008zm-.7231-3.4017-.3615-1.7008h.5l.3615 1.7008zm-.723-3.4016-.3615-1.7008h.5l.3615 1.7008zm-.7231-3.4016-.3615-1.7008h.5l.3615 1.7008zm-.723-3.4016-.1808-.8504h.5l.1808.8504zm.2592-.6534c-.0353.0299-.0745.0561-.1171.0787l-.3133-.4391c.0208-.0112.0374-.0225.0505-.0337zm-.3641.168c-.0395.0092-.0809.0169-.1239.0232l-.1753-.4839c.0317-.0046.0608-.0102.0875-.0163zm-.1239.0232c-.2798.0414-.6288.024-1.0201-.0366l-.0219-.4826c.3635.0562.6549.0666.8667.0353zm-2.9843-.5537c-.5999-.2059-1.2435-.4616-1.9035-.7575l.1332-.4363c.6442.2888 1.2699.5372 1.8501.7364zm-3.7549-1.6743c-.3035-.1649-.6056-.3365-.9036-.514l.2007-.4012c.2902.1729.5846.3402.8808.501zm-.9036-.514c-.3996-.238-.7702-.4733-1.1091-.7028l.2337-.3802c.3271.2215.6866.4498 1.0761.6818zm-3.1561-2.4354c-.2076-.2564-.3596-.5157-.3978-.7563-.0417-.2636.0587-.4719.2803-.5945l.3185.4364c-.087.0482-.1064.1052-.094.1839.0162.1017.0924.2616.2724.4839zm-.2016-1.2524c.0793-.2188.1873-.5126.3205-.8653l.485.2446c-.1326.3509-.24.6431-.3187.8604zm.9954-2.5901c.2143-.5296.4534-1.1036.7126-1.7007l.4781.2614c-.2578.5939-.4956 1.1651-.709 1.6921zm1.4705-3.3803c.2593-.5516.5313-1.1062.8126-1.6488l.4672.2845c-.2788.5377-.5486 1.0879-.8062 1.6358zm1.6998-3.2561c.3263-.5516.6606-1.0715.9989-1.5394l.439.3302c-.3303.4569-.6586.9671-.9806 1.5115zm2.2039-2.9439c.2508-.2332.5045-.4291.7597-.577l.3253.4326c-.2246.1302-.4562.3075-.6927.5275zm.7597-.577c.0285-.0165.0561-.032.0828-.0464l.3152.4382c-.0231.0125-.0474.0261-.0727.0408zm.2583-.1329c.0333-.0146.065-.0275.0951-.0387l.2641.4614c-.0221.0082-.0463.018-.0729.0296zm-.0264.1144.0002-.0015.5071.1553-.0002.0014zm.0006-.0044.0002-.0014.5071.1553-.0002.0014zm.2537.0762c-.1405-.2273-.1405-.2273-.1405-.2273h.0001c.0001-.0001.0003-.0002.0006-.0003.0004-.0002.0012-.0005.0021-.0009.0019-.0008.0048-.002.0086-.0036.0075-.0032.0188-.008.0336-.0142.0295-.0126.0731-.0311.1294-.055.1124-.0478.2753-.1171.4768-.2032l.2823.4541c-.2018.0862-.3648.1556-.4775.2034-.0563.024-.1.0425-.1296.0551-.0149.0063-.0262.0111-.0338.0143-.0038.0016-.0066.0028-.0086.0037-.0009.0004-.0017.0007-.0022.0009-.0002.0001-.0004.0002-.0005.0002s-.0001.0001-.0001.0001c-.0001 0-.0001 0-.0001 0s0 0-.1406-.2273zm1.8112-1.0629c.4076-.1759.8501-.3679 1.298-.564l.2856.4526c-.4486.1964-.8918.3887-1.2998.5649zm2.5905-1.1351c.2218-.0992.4373-.1963.6425-.2896l.2909.4503c-.2061.0937-.4224.1912-.6449.2906zm.788-.0645c.0414-.2281.0413-.2282.0413-.2282h-.0001-.0001c-.0001-.0001-.0001-.0001-.0002-.0001s-.0001 0 0 0 .0005.0002.0011.0004c.0013.0004.0037.0012.0072.0024.007.0023.0184.006.0343.0109.0318.0099.0815.0247.1498.0434.1368.0374.3482.0903.64.1499l-.005.4778c-.3039-.062-.5279-.1179-.6777-.1589-.0748-.0204-.1311-.0372-.1695-.0491-.0193-.006-.034-.0108-.0444-.0142-.0052-.0017-.0093-.0031-.0123-.0041-.0015-.0005-.0027-.0009-.0037-.0012-.0005-.0002-.0009-.0004-.0012-.0005-.0002 0-.0004-.0001-.0005-.0001-.0001-.0001-.0001-.0001-.0002-.0001h-.0001s-.0001-.0001.0413-.2283zm2.5944.2445c.4946.0568 1.0665.1087 1.7204.1483l.0725.4881c-.6632-.0401-1.2448-.0928-1.7495-.1509zm3.4349.2159c.2741.0054.5585.0087.8536.0095l.1026.4891c-.298-.0008-.5854-.0041-.8625-.0096zm.8523.0095c.3141-.0008.617-.0045.9088-.0106l.1146.489c-.2949.0061-.6009.0098-.9181.0107zm2.713-.085c.6744-.0424 1.2658-.0975 1.7772-.1572l.1611.4858c-.5199.0607-1.1199.1165-1.8029.1595zm3.5112-.4234c.2822-.0561.49-.1055.6263-.1407.0681-.0175.1184-.0315.1511-.0409.0164-.0047.0284-.0083.0361-.0106.0038-.0012.0066-.0021.0082-.0026.0009-.0002.0014-.0004.0017-.0005.0002-.0001.0003-.0001.0003-.0001s0 0-.0001 0v.0001c-.0001 0-.0001 0 .1226.2338.1227.2339.1227.2339.1227.2339s0 .0001-.0001.0001c0 0 0 0-.0001 0s-.0002.0001-.0003.0001c-.0003.0001-.0006.0002-.001.0003-.0008.0003-.0018.0006-.0031.001-.0027.0008-.0064.002-.0112.0034-.0096.0029-.0235.0071-.0418.0124-.0367.0105-.0909.0256-.163.0441-.1443.0372-.3601.0885-.6505.1463zm1.0159-.1782.0049.0022-.1393.4336-.0049-.0023zm.0147.0068.0049.0022-.1393.4336-.0049-.0023z" fill="#2f2e0c"/><g mask="url(#b)"><path d="m28.827 25.2012c-.5132.22-.9692.5055-1.351.8559l.2511.1712c-.1785.1638-.3403.3425-.4835.5359-.1432.1933-.2634.3955-.3614.6049l-.2815-.1301c-.2094.448-.3207.9284-.3403 1.4277l.2936.0796c-.0194.4938.0544 1.0067.2144 1.5249l-.2856-.0239c.1673.5417.4258 1.0887.7682 1.6263l.2586-.0335c.3287.516.7376 1.0228 1.2197 1.506l-.2134.0892c.4893.4903 1.0514.9574 1.6799 1.3876l.1529-.1392c.2939.2011.6029.3939.9263.5769.3235.183.6513.3504.9816.5023l-.0827.1789c.7064.3249 1.4243.5818 2.1365.7711l.0057-.2066c.7018.1865 1.3982.305 2.0715.3558l.071.2198c.7013.0529 1.3783.035 2.0123-.0534l-.1419-.218c.6064-.0845 1.172-.2358 1.6795-.4534l.2034.2014c.5132-.2201.9691-.5055 1.351-.856l-.2512-.1711c.1786-.1639.3404-.3425.4836-.5359s.2634-.3955.3613-.605l.2815.1302c.2095-.448.3208-.9284.3403-1.4277l-.2935-.0797c.0193-.4937-.0544-1.0067-.2145-1.5248l.2857.0239c-.1674-.5417-.4258-1.0888-.7682-1.6263l-.2586.0334c-.3288-.516-.7376-1.0227-1.2198-1.5059l.2134-.0892c-.4892-.4903-1.0514-.9575-1.6799-1.3876l-.1529.1391c-.2938-.2011-.6028-.3939-.9263-.5768-.3234-.183-.6512-.3504-.9815-.5023l.0827-.1789c-.7064-.325-1.4243-.5819-2.1365-.7712l-.0057.2067c-.7019-.1866-1.3983-.305-2.0716-.3558l-.0709-.2199c-.7014-.0529-1.3783-.0349-2.0123.0535l.1419.218c-.6064.0845-1.1721.2358-1.6796.4534z" stroke="#2f2e0c" stroke-dasharray="1.84 1.84" stroke-width=".5"/></g><path d="m50.1588 35.2065 3.8527 18.3038" stroke="#2f2e0c" stroke-dasharray="1.84 1.84" stroke-width=".5"/><path d="m22.4839 34.01 3.6134 19.179" stroke="#2f2e0c" stroke-dasharray="1.84 1.84" stroke-width=".5"/><path d="m109.918 57.1989c.789-.1526 1.615-.0498 2.319.3373 2.635 1.4492 5.385 2.8262 8.097 4.1775.433.216.804.5278 1.087.9211 2.043 2.8418 10.859 15.1787 14.052 20.915.697 1.0012-.994 3.0859-4.426 5.2103-4.236 2.6225-9.523 4.3123-11.808 3.7743-.529-.1247-.851-.3582-.98-.6759l-.932-1.8369-5.522 31.3124h-42.9556l5.5977-31.7462c-.1718.1101-.399.1871-.6832.2271-2.0882.2937-6.4631-1.524-9.8899-4.2009-3.0995-2.4211-3.7086-4.2048-2.9363-5.2383 2.4134-3.2291 12.9355-17.0228 18.5139-19.6781.2463-.1172.4404-.1944.5928-.2442l.0048-.0092s4.5996-1.6828 8.2683-3.0896c.7155-.2744 1.5111-.277 2.2583-.1069 1.4209.3235 4.2712.7754 9.1374.7884 5.1218-.0137 8.5268-.5127 10.2048-.8372z" fill="#aeff6e" stroke="#2f2e0c" stroke-width=".5"/><path d="m89.9782 116.821 1.9385-7.981" stroke="#2f2e0c" stroke-width=".5"/><g mask="url(#c)"><path d="m91.7839 48.7483c-4.2824 3.8131-3.7768 9.8069 1.1231 13.3875 4.8998 3.5806 12.344 3.3961 16.626-.4171s3.777-9.8069-1.123-13.3875-12.3438-3.3961-16.6261.4171z" stroke="#2f2e0c" stroke-width=".5"/></g><path d="m121.562 62.614-4.325 27.9505" stroke="#2f2e0c" stroke-width=".5"/><path d="m80.1597 60.4915-5.8004 29.6004" stroke="#2f2e0c" stroke-width=".5"/><path d="m92.6057 88.275c4.9538-3.08 8.7853-8.6599 12.4263-12.7318" stroke="#2f2e0c" stroke-linecap="round" stroke-width=".5"/><path d="m142.934 118.676c.374-.411.24-1.067-.266-1.299l-50.1317-22.9343c-.3252-.1488-.7093-.0701-.9497.1946l-3.0493 3.3574.7234 36.2563c.0106.534.5186.915 1.0337.777l11.9256-3.195 7.812 9.274c.206.243.533.346.841.264l22.488-6.025 2.97-3.27c.276-.305.285-.767.02-1.082l-5.709-6.777 9.595-2.571z" fill="#fff" stroke="#2f2e0c" stroke-linejoin="round" stroke-width=".5"/><path d="m140.235 121.646-51.6991-23.6515.7234 36.2565c.0107.533.5187.915 1.0338.777l11.9259-3.195 8.148 9.673 22.992-6.161-8.149-9.673z" fill="#f1f1ed"/><path d="m110.367 141.506-8.148-9.673-11.9259 3.195c-.5151.138-1.0231-.244-1.0338-.777l-.7234-36.2565 51.6991 23.6515-15.025 4.026 8.149 9.673zm0 0 22.992-6.161" stroke="#2f2e0c" stroke-linejoin="round" stroke-width=".5"/><path d="m46.9101 14.989c0 .1269.1029.2298.2298.2298h2.0684c.127 0 .2299-.1029.2299-.2298s-.1029-.2298-.2299-.2298h-1.8386v-1.8386c0-.127-.1029-.2299-.2298-.2299s-.2298.1029-.2298.2299zm.3923.1625c14.6288-14.628812 38.3469-14.628813 52.9756 0l.325-.325c-14.8082-14.8083447-38.8173-14.8083423-53.6256 0z" fill="#2f2e0c"/></g></svg>